<svg aria-hidden="true" style="position: absolute; width: 0; height: 0; overflow: hidden;" version="1.1" xmlns="http://www.w3.org/2000/svg" xmlns:xlink="http://www.w3.org/1999/xlink">
<defs>
<symbol id="icon-wave-desktop" viewBox="0 0 58 32">
<path fill="#fff" style="fill: var(--color1, #fff)" d="M8.089 27.641c-3.425 0.363-5.869 2.422-8.089 2.733v-30.374h58.119v16.692c-1.638-0.387-8.054 6.083-11.703 7.386-5.369 0.882-2.082-3.425-14.646 2.681s-19.642 0.454-23.681 0.882z"></path>
</symbol>
<symbol id="icon-wave-tablet" viewBox="0 0 45 32">
<path fill="#fff" style="fill: var(--color1, #fff)" d="M6.253 27.359c-2.648 0.251-4.537 1.676-6.253 1.892v-29.25h44.929v19.78c-1.267-0.268-6.226 4.211-9.047 5.113-4.151 0.611-1.61-2.371-11.322 1.856s-15.184 0.314-18.307 0.611z"></path>
</symbol>
<symbol id="icon-wave-mobile" viewBox="0 0 19 32">
<path fill="#fff" style="fill: var(--color1, #fff)" d="M20.627 27.042c-9.624 3.771-15.047 0.28-18.141 0.545-0.888 0.076-1.69 0.272-2.428 0.505-1.443 0.456-2.643 1.056-3.768 1.183v-28.985h44.522v20.535c-1.255-0.239-6.17 3.757-8.965 4.562-4.113 0.545-1.595-2.115-11.219 1.656z"></path>
</symbol>
</defs>
</svg>
