<svg aria-hidden="true" style="position: absolute; width: 0; height: 0; overflow: hidden;" version="1.1" xmlns="http://www.w3.org/2000/svg" xmlns:xlink="http://www.w3.org/1999/xlink">
<defs>
<symbol id="icon-methods" viewBox="0 0 32 32">
<path fill="#ff6b09" style="fill: var(--color1, #ff6b09)" d="M25.269 5.161h-10.444c-0.68 0-1.233 0.551-1.233 1.229v4.31l-7.759 3.247c-0.088 0.037-0.148 0.119-0.154 0.214s0.040 0.185 0.122 0.234l0.99 0.59v6.292c-0.506 0.115-0.886 0.567-0.886 1.107v0.607c0 0.139 0.113 0.252 0.253 0.252h1.772c0.139 0 0.253-0.113 0.253-0.252v-0.607c0-0.54-0.38-0.99-0.886-1.106v-5.991l0.782 0.467c-0.024 0.18-0.003-0.313-0.011 2.929 0 1.066 2.739 1.637 5.525 1.67v4.91c0 0.254 0.078 0.49 0.211 0.685 0.222 0.327 0.597 0.542 1.021 0.542h10.444c0.679 0 1.232-0.551 1.232-1.228-0 0.034-0.001-1.040 0-18.873 0-0.669-0.555-1.229-1.231-1.229zM7.676 22.385v0.355h-1.267v-0.355c0-0.349 0.283-0.633 0.632-0.633 0.35 0 0.635 0.284 0.635 0.633zM25.269 25.987h-10.444c-0.251 0-0.472-0.126-0.603-0.318-0.078-0.116-0.124-0.255-0.124-0.405v-1.702h11.896v1.703c0 0.395-0.33 0.722-0.725 0.722zM25.994 23.058h-11.897v-2.702c1.361-0.016 5.529-0.314 5.529-1.671-0.002-2.037 0.004-2.863-0.006-2.933l2.269-1.355c0.082-0.049 0.129-0.139 0.122-0.234s-0.066-0.177-0.154-0.214l-7.759-3.247v-2.104h11.897v14.461zM13.844 17.012c-1.402 0-4.1 0.18-5.273 0.944 0.007-2.335-0.081-2.182 0.207-2.38 0.728-0.535 2.811-0.908 5.066-0.908 0.983 0 5.276 0.27 5.276 1.176v2.113c-1.183-0.77-3.868-0.944-5.276-0.944zM14.098 6.391c0-0.399 0.326-0.724 0.726-0.724h10.444c0.401 0 0.725 0.33 0.725 0.724v1.702h-11.896v-1.702zM13.844 11.141l7.356 3.078-1.823 1.087c-0.969-0.958-4.175-1.144-5.533-1.144-1.361 0-4.566 0.186-5.533 1.144l-1.823-1.088 7.357-3.078zM8.572 18.684c0-0.408 1.811-1.169 5.273-1.169 3.464 0 5.276 0.761 5.276 1.169s-1.812 1.169-5.276 1.169c-3.462 0-5.273-0.761-5.273-1.169z"></path>
<path fill="#ff6b09" style="fill: var(--color1, #ff6b09)" d="M20.046 23.942c-0.461 0-0.836 0.374-0.836 0.833s0.375 0.834 0.836 0.834c0.461 0 0.836-0.374 0.836-0.834s-0.375-0.833-0.836-0.833zM20.046 25.104c-0.182 0-0.33-0.148-0.33-0.33s0.148-0.329 0.33-0.329c0.182 0 0.33 0.148 0.33 0.329s-0.148 0.33-0.33 0.33z"></path>
<path fill="#ff6b09" style="fill: var(--color1, #ff6b09)" d="M21.010 6.628h-1.928v0.504h1.928v-0.504z"></path>
<path fill="none" stroke="#ff6b09" style="stroke: var(--color1, #ff6b09)" stroke-linejoin="miter" stroke-linecap="butt" stroke-miterlimit="4" stroke-width="1.0323" d="M31.484 4.767v-4.25h-30.968v30.968h30.968v-4.25"></path>
</symbol>
<symbol id="icon-result" viewBox="0 0 32 32">
<path fill="#ff6b09" style="fill: var(--color1, #ff6b09)" d="M7.582 14.543c0 0.23-0.356 0.23-0.356 0 0-4.895 4.045-8.866 9.032-8.866 4.989 0 9.032 3.97 9.032 8.866 0 0.23-0.354 0.23-0.354 0 0-3.309-5.54-3.311-5.54 0 0 0.23-0.365 0.23-0.365 0 0-3.301-5.548-3.301-5.548 0 0 0.23-0.365 0.23-0.365 0 0-3.294-5.537-3.317-5.537 0zM13.151 13.258c0.096-1.905 0.401-3.612 0.844-4.916 0.354-1.036 0.802-1.823 1.309-2.265-3.808 0.408-6.891 3.242-7.58 6.917 1.311-1.856 4.339-1.708 5.427 0.264zM19.004 13.172c-0.098-1.831-0.394-3.47-0.821-4.72-1.1-3.234-2.751-3.234-3.851 0-0.426 1.25-0.721 2.888-0.821 4.72 1.183-1.974 4.309-1.974 5.493 0zM24.791 12.994c-0.687-3.675-3.77-6.509-7.58-6.917 0.51 0.442 0.955 1.229 1.309 2.265 0.444 1.304 0.748 3.012 0.844 4.916 1.094-1.982 4.13-2.099 5.427-0.264z"></path>
<path fill="#ff6b09" style="fill: var(--color1, #ff6b09)" d="M15.073 18.6v-1.8c-0.331 0.216-0.591 0.549-0.591 0.955 0 0.396 0.264 0.657 0.591 0.846zM15.429 19.159c-0.633-0.285-1.301-0.618-1.301-1.405 0-0.812 0.629-1.218 1.301-1.522v2.927z"></path>
<path fill="#ff6b09" style="fill: var(--color1, #ff6b09)" d="M17.444 21.316v1.821c0.335-0.218 0.597-0.553 0.597-0.959 0-0.4-0.269-0.67-0.597-0.862zM17.090 20.755c0.635 0.289 1.307 0.632 1.307 1.423 0 0.814-0.633 1.22-1.307 1.522v-2.945z"></path>
<path fill="#ff6b09" style="fill: var(--color1, #ff6b09)" d="M17.444 14.751c1.458 0.331 2.957 1.402 2.957 3.004 0 1.371-2.36 1.321-2.36 0 0-0.408-0.262-0.743-0.597-0.959v2.562c1.35 0.433 2.962 1.21 2.962 2.821 0 1.603-1.499 2.673-2.962 3.001-0.006 1.526-2.367 1.524-2.371-0.002-0.832-0.188-1.554-0.569-2.077-1.074-0.548-0.532-0.872-1.199-0.872-1.926 0-1.35 2.358-1.35 2.358 0 0 0.404 0.26 0.737 0.591 0.952v-2.56c-1.339-0.425-2.96-1.224-2.96-2.821 0-1.603 1.499-2.673 2.96-3.001 0.006-1.526 2.367-1.524 2.371 0.002zM15.429 14.755v0.278c-1.388 0.27-2.962 1.143-2.962 2.717 0 1.513 1.727 2.191 2.962 2.566v3.382c-0.667-0.299-1.301-0.703-1.301-1.52 0-0.892-1.65-0.892-1.65 0 0 0.63 0.286 1.212 0.768 1.677 0.612 0.594 1.354 0.877 2.183 1.038v0.28c0 1.074 1.661 1.074 1.661 0v-0.278c1.392-0.272 2.96-1.145 2.96-2.717 0-1.528-1.723-2.185-2.96-2.568v-3.38c0.67 0.299 1.307 0.703 1.307 1.524 0 0.869 1.648 0.904 1.648 0 0-1.572-1.565-2.447-2.955-2.719v-0.28c0-1.074-1.661-1.074-1.661 0z"></path>
<path fill="none" stroke="#ff6b09" style="stroke: var(--color1, #ff6b09)" stroke-linejoin="miter" stroke-linecap="butt" stroke-miterlimit="4" stroke-width="1.0323" d="M31.484 4.767v-4.25h-30.968v30.968h30.968v-4.25"></path>
</symbol>
<symbol id="icon-program" viewBox="0 0 32 32">
<path fill="#ff6b09" style="fill: var(--color1, #ff6b09)" d="M7.262 25.806c2.181 0 14.797 0 16.976 0 0.084-1.981-0.055-5.269-1.245-6.833l-0.043-0.056-2.601-1.337c0.056-0.195 0.084-0.374 0.095-0.505 0.013-0.158-0.008-0.306-0.063-0.44-0.429-1.051-1.337-1.604-1.837-1.839 0.152-0.314 0.25-0.651 0.298-0.995 0.283-0.082 0.51-0.311 0.585-0.617l0.304-1.262c0.054-0.223 0.020-0.454-0.096-0.65-0.050-0.085-0.114-0.156-0.186-0.217 0.856-1.99-0.578-3.866-0.656-3.965-1.553-1.718-3.514-1.397-3.618-1.378-2.83 0.607-3.923 2.827-3.306 5.431-0.183 0.207-0.259 0.496-0.192 0.779l0.305 1.264c0.074 0.304 0.3 0.532 0.58 0.615 0.087 0.63 0.347 1.201 0.73 1.66v1.001c-4.062 2.129-1.488 0.771-4.743 2.456-0.006 0.031-1.527 1.686-1.301 6.589l0.014 0.3zM23.648 25.177h-2.794v-1.201l1.848-4.329c0.926 1.572 0.96 4.575 0.946 5.53zM19.835 17.022c-0.108 1.268-0.787 0.884-1.206 1.861-0.33-0.371-0.429-0.816-0.34-1.293 0.16-0.875-0.362-1.134-0.233-2.054l0.020-0.021v-0.003c0.011-0.013 0.114-0.138 0.144-0.178 1.105 0.493 1.638 1.41 1.616 1.687zM13.905 16.026c0.513 0.364 1.133 0.579 1.799 0.579 0.627 0 1.223-0.187 1.734-0.531 0.071 0.723 0.347 0.867 0.249 1.399-0.018 0.099-0.028 0.196-0.034 0.292l-1.903 2.195-2.432-2.806 0.587-0.314v-0.814zM13.14 13.34v-1.217c0-0.448 0-2.226 0-2.138 0.296-0.56 0.7-0.967 1.201-1.211 1.344 0.778 2.89 1.939 3.928 3.108-0.001 1.488 0.004 1.492-0.006 1.615l-0.001 0.008c-0.081 1.351-1.167 2.472-2.559 2.472-1.354 0-2.477-1.088-2.559-2.485-0.004-0.050-0.005-0.1-0.005-0.151zM12.761 17.457l2.989 3.449 2.007-2.315c0.046 0.135 0.11 0.263 0.184 0.386l-2.191 2.803-3.266-4.181 0.277-0.143zM18.881 12.834v-0.972c0.027-0.032 0.255-0.299 0.228-0.268 0.013 0.492 0.064-0.089-0.228 1.239zM15.289 6.331c0.121 0.008 1.752-0.254 3.042 1.17 0.051 0.065 1.1 1.449 0.679 2.963-0.144-0.674-0.396-1.537-0.793-1.949l-0.434 0.443c0.392 0.407 0.65 1.646 0.748 2.288-1.8-1.928-4.122-3.148-4.154-3.169-0.116 0.074-1.099 0.265-1.813 1.685l-0.034 0.068v1.043c-0.031 0-0.121 0.001-0.090 0.001-0.453-2.241 0.415-4.021 2.85-4.543zM12.374 11.521l0.154 0.64v0.673l-0.257-1.063c-0.038-0.158 0.077-0.219 0.102-0.25zM11.924 17.887l3.826 4.898 2.589-3.314c0.282 0.258 0.417 0.295 1.014 0.609l-0.201-0.699c-0.051-0.177 0.151-0.462 0.273-0.593 0.273-0.151 0.5-0.367 0.67-0.634l2.112 1.086-1.966 4.605v1.333h-8.984v-1.333l-1.966-4.605 2.632-1.352zM8.798 19.648l1.848 4.328v1.201h-2.794c-0.014-0.955 0.021-3.956 0.946-5.529z"></path>
<path fill="none" stroke="#ff6b09" style="stroke: var(--color1, #ff6b09)" stroke-linejoin="miter" stroke-linecap="butt" stroke-miterlimit="4" stroke-width="1.0323" d="M31.484 4.767v-4.25h-30.968v30.968h30.968v-4.25"></path>
</symbol>
</defs>
</svg>
