<svg aria-hidden="true" style="position: absolute; width: 0; height: 0; overflow: hidden;" version="1.1" xmlns="http://www.w3.org/2000/svg" xmlns:xlink="http://www.w3.org/1999/xlink">
<defs>
<symbol id="icon-desktop-result" viewBox="0 0 32 32">
<path fill="#ff6b09" style="fill: var(--color1, #ff6b09)" d="M9.667 14.937c0 0.168-0.255 0.168-0.255 0 0-3.571 2.896-6.467 6.467-6.467 3.572 0 6.467 2.896 6.467 6.467 0 0.168-0.253 0.168-0.253 0 0-2.414-3.966-2.415-3.966 0 0 0.168-0.261 0.168-0.261 0 0-2.408-3.972-2.408-3.972 0 0 0.168-0.261 0.168-0.261 0 0-2.403-3.965-2.42-3.965 0zM13.654 14c0.069-1.389 0.287-2.635 0.605-3.586 0.253-0.756 0.574-1.33 0.937-1.652-2.727 0.298-4.934 2.365-5.427 5.046 0.939-1.354 3.107-1.246 3.885 0.192zM17.845 13.938c-0.070-1.336-0.282-2.531-0.588-3.443-0.788-2.359-1.969-2.359-2.757 0-0.305 0.911-0.516 2.107-0.588 3.443 0.847-1.44 3.085-1.44 3.933 0zM21.988 13.808c-0.492-2.681-2.699-4.748-5.427-5.046 0.365 0.322 0.684 0.896 0.937 1.652 0.318 0.951 0.536 2.197 0.605 3.586 0.783-1.446 2.957-1.531 3.885-0.192z"></path>
<path fill="#ff6b09" style="fill: var(--color1, #ff6b09)" d="M15.030 17.896v-1.313c-0.237 0.157-0.423 0.4-0.423 0.696 0 0.289 0.189 0.479 0.423 0.617zM15.285 18.304c-0.453-0.208-0.931-0.45-0.931-1.025 0-0.592 0.45-0.889 0.931-1.11v2.135z"></path>
<path fill="#ff6b09" style="fill: var(--color1, #ff6b09)" d="M16.727 19.878v1.328c0.24-0.159 0.427-0.403 0.427-0.699 0-0.292-0.192-0.489-0.427-0.629zM16.474 19.469c0.455 0.211 0.936 0.461 0.936 1.038 0 0.594-0.453 0.89-0.936 1.11v-2.148z"></path>
<path fill="#ff6b09" style="fill: var(--color1, #ff6b09)" d="M16.727 15.089c1.044 0.241 2.117 1.023 2.117 2.191 0 1-1.69 0.963-1.69 0 0-0.298-0.188-0.542-0.427-0.699v1.869c0.966 0.316 2.12 0.882 2.12 2.058 0 1.169-1.073 1.95-2.12 2.189-0.005 1.113-1.695 1.111-1.698-0.002-0.595-0.137-1.113-0.415-1.487-0.783-0.392-0.388-0.624-0.875-0.624-1.405 0-0.985 1.688-0.985 1.688 0 0 0.295 0.186 0.537 0.423 0.695v-1.867c-0.959-0.31-2.119-0.893-2.119-2.058 0-1.169 1.073-1.95 2.119-2.189 0.005-1.113 1.695-1.111 1.698 0.002zM15.285 15.092v0.203c-0.994 0.197-2.12 0.834-2.12 1.982 0 1.104 1.237 1.598 2.12 1.872v2.467c-0.478-0.218-0.931-0.513-0.931-1.108 0-0.65-1.182-0.65-1.182 0 0 0.459 0.205 0.884 0.55 1.223 0.438 0.434 0.969 0.64 1.563 0.757v0.205c0 0.783 1.189 0.783 1.189 0v-0.203c0.997-0.198 2.119-0.835 2.119-1.982 0-1.114-1.233-1.594-2.119-1.873v-2.466c0.479 0.218 0.936 0.513 0.936 1.111 0 0.634 1.18 0.66 1.18 0 0-1.147-1.121-1.785-2.116-1.983v-0.205c0-0.783-1.189-0.783-1.189 0z"></path>
<path fill="none" stroke="#ff6b09" style="stroke: var(--color1, #ff6b09)" stroke-linejoin="miter" stroke-linecap="butt" stroke-miterlimit="4" stroke-width="0.6275" d="M31.686 4.62v-4.306h-31.373v31.373h31.373v-4.306"></path>
</symbol>
<symbol id="icon-desktop--methods" viewBox="0 0 32 32">
<path fill="#ff6b09" style="fill: var(--color1, #ff6b09)" d="M22.375 8.412h-7.256c-0.472 0-0.857 0.384-0.857 0.857v3.003l-5.39 2.262c-0.061 0.026-0.103 0.083-0.107 0.149s0.028 0.129 0.085 0.163l0.687 0.411v4.384c-0.352 0.080-0.615 0.395-0.615 0.771v0.423c0 0.097 0.079 0.176 0.176 0.176h1.231c0.097 0 0.176-0.079 0.176-0.176v-0.423c0-0.376-0.264-0.69-0.616-0.771v-4.175l0.544 0.325c-0.017 0.125-0.002-0.218-0.008 2.041 0 0.743 1.903 1.141 3.838 1.163v3.421c0 0.177 0.054 0.341 0.147 0.478 0.154 0.228 0.415 0.378 0.709 0.378h7.256c0.472 0 0.856-0.384 0.856-0.856 0 0.023-0.001-0.725 0-13.151 0-0.466-0.385-0.857-0.855-0.857zM10.153 20.413v0.247h-0.88v-0.247c0-0.243 0.197-0.441 0.439-0.441 0.243 0 0.441 0.198 0.441 0.441zM22.375 22.923h-7.256c-0.174 0-0.328-0.088-0.419-0.222-0.054-0.081-0.086-0.178-0.086-0.282v-1.186h8.264v1.186c0 0.275-0.229 0.503-0.503 0.503zM22.878 20.882h-8.264v-1.883c0.945-0.011 3.841-0.219 3.841-1.165-0.001-1.419 0.003-1.995-0.004-2.044l1.576-0.944c0.057-0.034 0.089-0.097 0.085-0.163s-0.046-0.124-0.107-0.149l-5.39-2.262v-1.466h8.264v10.076zM14.438 16.669c-0.974 0-2.848 0.126-3.663 0.658 0.005-1.627-0.056-1.521 0.144-1.659 0.506-0.373 1.953-0.633 3.519-0.633 0.683 0 3.665 0.188 3.665 0.819v1.472c-0.822-0.537-2.687-0.658-3.665-0.658zM14.614 9.268c0-0.278 0.226-0.505 0.505-0.505h7.256c0.279 0 0.504 0.23 0.504 0.505v1.186h-8.264v-1.186zM14.438 12.579l5.11 2.145-1.266 0.758c-0.673-0.668-2.9-0.797-3.844-0.797-0.945 0-3.172 0.13-3.844 0.797l-1.267-0.758 5.11-2.145zM10.776 17.834c0-0.284 1.258-0.814 3.663-0.814 2.406 0 3.665 0.53 3.665 0.814s-1.259 0.815-3.665 0.815c-2.405 0-3.663-0.53-3.663-0.815z"></path>
<path fill="#ff6b09" style="fill: var(--color1, #ff6b09)" d="M18.747 21.498c-0.32 0-0.581 0.26-0.581 0.581s0.26 0.581 0.581 0.581c0.32 0 0.581-0.261 0.581-0.581s-0.26-0.581-0.581-0.581zM18.747 22.308c-0.127 0-0.23-0.103-0.23-0.23s0.103-0.229 0.23-0.229c0.127 0 0.23 0.103 0.23 0.229s-0.103 0.23-0.23 0.23z"></path>
<path fill="#ff6b09" style="fill: var(--color1, #ff6b09)" d="M19.416 9.433h-1.339v0.351h1.339v-0.351z"></path>
<path fill="none" stroke="#ff6b09" style="stroke: var(--color1, #ff6b09)" stroke-linejoin="miter" stroke-linecap="butt" stroke-miterlimit="4" stroke-width="0.6275" d="M31.686 4.62v-4.306h-31.373v31.373h31.373v-4.306"></path>
</symbol>
<symbol id="icon-desktop-program" viewBox="0 0 32 32">
<path fill="#ff6b09" style="fill: var(--color1, #ff6b09)" d="M9.753 23.074c1.619 0 10.987 0 12.605 0 0.062-1.437-0.041-3.822-0.924-4.957l-0.032-0.041-1.931-0.97c0.042-0.141 0.063-0.271 0.071-0.366 0.010-0.114-0.006-0.222-0.047-0.319-0.319-0.762-0.993-1.163-1.364-1.335 0.113-0.228 0.186-0.472 0.221-0.722 0.21-0.059 0.379-0.225 0.434-0.447l0.225-0.916c0.040-0.162 0.015-0.329-0.071-0.472-0.037-0.061-0.085-0.113-0.138-0.157 0.636-1.444-0.429-2.805-0.487-2.877-1.153-1.246-2.609-1.013-2.686-1-2.102 0.44-2.913 2.051-2.455 3.94-0.136 0.15-0.193 0.36-0.142 0.565l0.227 0.917c0.055 0.22 0.222 0.386 0.431 0.446 0.064 0.457 0.258 0.871 0.542 1.204v0.726c-3.016 1.544-1.105 0.559-3.522 1.782-0.005 0.023-1.134 1.223-0.966 4.781l0.010 0.217zM21.919 22.618h-2.074v-0.871l1.372-3.141c0.687 1.141 0.713 3.319 0.702 4.012zM19.088 16.701c-0.080 0.92-0.584 0.642-0.896 1.35-0.245-0.269-0.319-0.592-0.253-0.938 0.119-0.635-0.268-0.823-0.173-1.49l0.015-0.015v-0.002c0.008-0.009 0.085-0.1 0.107-0.129 0.821 0.358 1.216 1.023 1.2 1.224zM14.685 15.978c0.381 0.264 0.841 0.42 1.336 0.42 0.466 0 0.908-0.136 1.288-0.385 0.053 0.524 0.257 0.629 0.185 1.015-0.014 0.072-0.021 0.142-0.025 0.212l-1.413 1.592-1.806-2.036 0.436-0.228v-0.59zM14.117 14.030v-0.883c0-0.325 0-1.615 0-1.551 0.22-0.407 0.52-0.702 0.892-0.878 0.998 0.565 2.146 1.407 2.916 2.255-0.001 1.080 0.003 1.083-0.004 1.171l-0 0.006c-0.060 0.98-0.866 1.793-1.9 1.793-1.005 0-1.839-0.789-1.9-1.803-0.003-0.036-0.004-0.073-0.004-0.11zM13.836 17.017l2.219 2.502 1.49-1.679c0.034 0.098 0.082 0.191 0.136 0.28l-1.626 2.034-2.425-3.033 0.206-0.103zM18.38 13.663v-0.705c0.020-0.023 0.189-0.217 0.169-0.194 0.009 0.357 0.048-0.064-0.169 0.899zM15.712 8.945c0.090 0.006 1.301-0.184 2.258 0.849 0.038 0.047 0.817 1.051 0.504 2.149-0.107-0.489-0.294-1.115-0.589-1.414l-0.323 0.321c0.291 0.295 0.483 1.194 0.556 1.66-1.337-1.399-3.061-2.284-3.085-2.299-0.086 0.054-0.816 0.193-1.346 1.223l-0.025 0.049v0.756c-0.023 0-0.090 0.001-0.067 0.001-0.337-1.626 0.308-2.917 2.116-3.296zM13.548 12.71l0.115 0.465v0.488l-0.191-0.771c-0.028-0.115 0.057-0.159 0.076-0.181zM13.214 17.329l2.841 3.553 1.922-2.404c0.209 0.187 0.31 0.214 0.753 0.442l-0.15-0.507c-0.038-0.129 0.112-0.335 0.203-0.43 0.203-0.11 0.371-0.267 0.498-0.46l1.568 0.788-1.459 3.341v0.967h-6.671v-0.967l-1.46-3.341 1.954-0.981zM10.893 18.606l1.372 3.14v0.871h-2.074c-0.010-0.693 0.015-2.87 0.702-4.011z"></path>
<path fill="none" stroke="#ff6b09" style="stroke: var(--color1, #ff6b09)" stroke-linejoin="miter" stroke-linecap="butt" stroke-miterlimit="4" stroke-width="0.6275" d="M31.686 4.62v-4.306h-31.373v31.373h31.373v-4.306"></path>
</symbol>
<symbol id="icon-methods" viewBox="0 0 32 32">
<path fill="#ff6b09" style="fill: var(--color1, #ff6b09)" d="M25.269 5.161h-10.444c-0.68 0-1.233 0.551-1.233 1.229v4.31l-7.759 3.247c-0.088 0.037-0.148 0.119-0.154 0.214s0.040 0.185 0.122 0.234l0.99 0.59v6.292c-0.506 0.115-0.886 0.567-0.886 1.107v0.607c0 0.139 0.113 0.252 0.253 0.252h1.772c0.139 0 0.253-0.113 0.253-0.252v-0.607c0-0.54-0.38-0.99-0.886-1.106v-5.991l0.782 0.467c-0.024 0.18-0.003-0.313-0.011 2.929 0 1.066 2.739 1.637 5.525 1.67v4.91c0 0.254 0.078 0.49 0.211 0.685 0.222 0.327 0.597 0.542 1.021 0.542h10.444c0.679 0 1.232-0.551 1.232-1.228-0 0.034-0.001-1.040 0-18.873 0-0.669-0.555-1.229-1.231-1.229zM7.676 22.385v0.355h-1.267v-0.355c0-0.349 0.283-0.633 0.632-0.633 0.35 0 0.635 0.284 0.635 0.633zM25.269 25.987h-10.444c-0.251 0-0.472-0.126-0.603-0.318-0.078-0.116-0.124-0.255-0.124-0.405v-1.702h11.896v1.703c0 0.395-0.33 0.722-0.725 0.722zM25.994 23.058h-11.897v-2.702c1.361-0.016 5.529-0.314 5.529-1.671-0.002-2.037 0.004-2.863-0.006-2.933l2.269-1.355c0.082-0.049 0.129-0.139 0.122-0.234s-0.066-0.177-0.154-0.214l-7.759-3.247v-2.104h11.897v14.461zM13.844 17.012c-1.402 0-4.1 0.18-5.273 0.944 0.007-2.335-0.081-2.182 0.207-2.38 0.728-0.535 2.811-0.908 5.066-0.908 0.983 0 5.276 0.27 5.276 1.176v2.113c-1.183-0.77-3.868-0.944-5.276-0.944zM14.098 6.391c0-0.399 0.326-0.724 0.726-0.724h10.444c0.401 0 0.725 0.33 0.725 0.724v1.702h-11.896v-1.702zM13.844 11.141l7.356 3.078-1.823 1.087c-0.969-0.958-4.175-1.144-5.533-1.144-1.361 0-4.566 0.186-5.533 1.144l-1.823-1.088 7.357-3.078zM8.572 18.684c0-0.408 1.811-1.169 5.273-1.169 3.464 0 5.276 0.761 5.276 1.169s-1.812 1.169-5.276 1.169c-3.462 0-5.273-0.761-5.273-1.169z"></path>
<path fill="#ff6b09" style="fill: var(--color1, #ff6b09)" d="M20.046 23.942c-0.461 0-0.836 0.374-0.836 0.833s0.375 0.834 0.836 0.834c0.461 0 0.836-0.374 0.836-0.834s-0.375-0.833-0.836-0.833zM20.046 25.104c-0.182 0-0.33-0.148-0.33-0.33s0.148-0.329 0.33-0.329c0.182 0 0.33 0.148 0.33 0.329s-0.148 0.33-0.33 0.33z"></path>
<path fill="#ff6b09" style="fill: var(--color1, #ff6b09)" d="M21.010 6.628h-1.928v0.504h1.928v-0.504z"></path>
<path fill="none" stroke="#ff6b09" style="stroke: var(--color1, #ff6b09)" stroke-linejoin="miter" stroke-linecap="butt" stroke-miterlimit="4" stroke-width="1.0323" d="M31.484 4.767v-4.25h-30.968v30.968h30.968v-4.25"></path>
</symbol>
<symbol id="icon-result" viewBox="0 0 32 32">
<path fill="#ff6b09" style="fill: var(--color1, #ff6b09)" d="M7.582 14.543c0 0.23-0.356 0.23-0.356 0 0-4.895 4.045-8.866 9.032-8.866 4.989 0 9.032 3.97 9.032 8.866 0 0.23-0.354 0.23-0.354 0 0-3.309-5.54-3.311-5.54 0 0 0.23-0.365 0.23-0.365 0 0-3.301-5.548-3.301-5.548 0 0 0.23-0.365 0.23-0.365 0 0-3.294-5.537-3.317-5.537 0zM13.151 13.258c0.096-1.905 0.401-3.612 0.844-4.916 0.354-1.036 0.802-1.823 1.309-2.265-3.808 0.408-6.891 3.242-7.58 6.917 1.311-1.856 4.339-1.708 5.427 0.264zM19.004 13.172c-0.098-1.831-0.394-3.47-0.821-4.72-1.1-3.234-2.751-3.234-3.851 0-0.426 1.25-0.721 2.888-0.821 4.72 1.183-1.974 4.309-1.974 5.493 0zM24.791 12.994c-0.687-3.675-3.77-6.509-7.58-6.917 0.51 0.442 0.955 1.229 1.309 2.265 0.444 1.304 0.748 3.012 0.844 4.916 1.094-1.982 4.13-2.099 5.427-0.264z"></path>
<path fill="#ff6b09" style="fill: var(--color1, #ff6b09)" d="M15.073 18.6v-1.8c-0.331 0.216-0.591 0.549-0.591 0.955 0 0.396 0.264 0.657 0.591 0.846zM15.429 19.159c-0.633-0.285-1.301-0.618-1.301-1.405 0-0.812 0.629-1.218 1.301-1.522v2.927z"></path>
<path fill="#ff6b09" style="fill: var(--color1, #ff6b09)" d="M17.444 21.316v1.821c0.335-0.218 0.597-0.553 0.597-0.959 0-0.4-0.269-0.67-0.597-0.862zM17.090 20.755c0.635 0.289 1.307 0.632 1.307 1.423 0 0.814-0.633 1.22-1.307 1.522v-2.945z"></path>
<path fill="#ff6b09" style="fill: var(--color1, #ff6b09)" d="M17.444 14.751c1.458 0.331 2.957 1.402 2.957 3.004 0 1.371-2.36 1.321-2.36 0 0-0.408-0.262-0.743-0.597-0.959v2.562c1.35 0.433 2.962 1.21 2.962 2.821 0 1.603-1.499 2.673-2.962 3.001-0.006 1.526-2.367 1.524-2.371-0.002-0.832-0.188-1.554-0.569-2.077-1.074-0.548-0.532-0.872-1.199-0.872-1.926 0-1.35 2.358-1.35 2.358 0 0 0.404 0.26 0.737 0.591 0.952v-2.56c-1.339-0.425-2.96-1.224-2.96-2.821 0-1.603 1.499-2.673 2.96-3.001 0.006-1.526 2.367-1.524 2.371 0.002zM15.429 14.755v0.278c-1.388 0.27-2.962 1.143-2.962 2.717 0 1.513 1.727 2.191 2.962 2.566v3.382c-0.667-0.299-1.301-0.703-1.301-1.52 0-0.892-1.65-0.892-1.65 0 0 0.63 0.286 1.212 0.768 1.677 0.612 0.594 1.354 0.877 2.183 1.038v0.28c0 1.074 1.661 1.074 1.661 0v-0.278c1.392-0.272 2.96-1.145 2.96-2.717 0-1.528-1.723-2.185-2.96-2.568v-3.38c0.67 0.299 1.307 0.703 1.307 1.524 0 0.869 1.648 0.904 1.648 0 0-1.572-1.565-2.447-2.955-2.719v-0.28c0-1.074-1.661-1.074-1.661 0z"></path>
<path fill="none" stroke="#ff6b09" style="stroke: var(--color1, #ff6b09)" stroke-linejoin="miter" stroke-linecap="butt" stroke-miterlimit="4" stroke-width="1.0323" d="M31.484 4.767v-4.25h-30.968v30.968h30.968v-4.25"></path>
</symbol>
<symbol id="icon-program" viewBox="0 0 32 32">
<path fill="#ff6b09" style="fill: var(--color1, #ff6b09)" d="M7.262 25.806c2.181 0 14.797 0 16.976 0 0.084-1.981-0.055-5.269-1.245-6.833l-0.043-0.056-2.601-1.337c0.056-0.195 0.084-0.374 0.095-0.505 0.013-0.158-0.008-0.306-0.063-0.44-0.429-1.051-1.337-1.604-1.837-1.839 0.152-0.314 0.25-0.651 0.298-0.995 0.283-0.082 0.51-0.311 0.585-0.617l0.304-1.262c0.054-0.223 0.020-0.454-0.096-0.65-0.050-0.085-0.114-0.156-0.186-0.217 0.856-1.99-0.578-3.866-0.656-3.965-1.553-1.718-3.514-1.397-3.618-1.378-2.83 0.607-3.923 2.827-3.306 5.431-0.183 0.207-0.259 0.496-0.192 0.779l0.305 1.264c0.074 0.304 0.3 0.532 0.58 0.615 0.087 0.63 0.347 1.201 0.73 1.66v1.001c-4.062 2.129-1.488 0.771-4.743 2.456-0.006 0.031-1.527 1.686-1.301 6.589l0.014 0.3zM23.648 25.177h-2.794v-1.201l1.848-4.329c0.926 1.572 0.96 4.575 0.946 5.53zM19.835 17.022c-0.108 1.268-0.787 0.884-1.206 1.861-0.33-0.371-0.429-0.816-0.34-1.293 0.16-0.875-0.362-1.134-0.233-2.054l0.020-0.021v-0.003c0.011-0.013 0.114-0.138 0.144-0.178 1.105 0.493 1.638 1.41 1.616 1.687zM13.905 16.026c0.513 0.364 1.133 0.579 1.799 0.579 0.627 0 1.223-0.187 1.734-0.531 0.071 0.723 0.347 0.867 0.249 1.399-0.018 0.099-0.028 0.196-0.034 0.292l-1.903 2.195-2.432-2.806 0.587-0.314v-0.814zM13.14 13.34v-1.217c0-0.448 0-2.226 0-2.138 0.296-0.56 0.7-0.967 1.201-1.211 1.344 0.778 2.89 1.939 3.928 3.108-0.001 1.488 0.004 1.492-0.006 1.615l-0.001 0.008c-0.081 1.351-1.167 2.472-2.559 2.472-1.354 0-2.477-1.088-2.559-2.485-0.004-0.050-0.005-0.1-0.005-0.151zM12.761 17.457l2.989 3.449 2.007-2.315c0.046 0.135 0.11 0.263 0.184 0.386l-2.191 2.803-3.266-4.181 0.277-0.143zM18.881 12.834v-0.972c0.027-0.032 0.255-0.299 0.228-0.268 0.013 0.492 0.064-0.089-0.228 1.239zM15.289 6.331c0.121 0.008 1.752-0.254 3.042 1.17 0.051 0.065 1.1 1.449 0.679 2.963-0.144-0.674-0.396-1.537-0.793-1.949l-0.434 0.443c0.392 0.407 0.65 1.646 0.748 2.288-1.8-1.928-4.122-3.148-4.154-3.169-0.116 0.074-1.099 0.265-1.813 1.685l-0.034 0.068v1.043c-0.031 0-0.121 0.001-0.090 0.001-0.453-2.241 0.415-4.021 2.85-4.543zM12.374 11.521l0.154 0.64v0.673l-0.257-1.063c-0.038-0.158 0.077-0.219 0.102-0.25zM11.924 17.887l3.826 4.898 2.589-3.314c0.282 0.258 0.417 0.295 1.014 0.609l-0.201-0.699c-0.051-0.177 0.151-0.462 0.273-0.593 0.273-0.151 0.5-0.367 0.67-0.634l2.112 1.086-1.966 4.605v1.333h-8.984v-1.333l-1.966-4.605 2.632-1.352zM8.798 19.648l1.848 4.328v1.201h-2.794c-0.014-0.955 0.021-3.956 0.946-5.529z"></path>
<path fill="none" stroke="#ff6b09" style="stroke: var(--color1, #ff6b09)" stroke-linejoin="miter" stroke-linecap="butt" stroke-miterlimit="4" stroke-width="1.0323" d="M31.484 4.767v-4.25h-30.968v30.968h30.968v-4.25"></path>
</symbol>
</defs>
</svg>
