<svg aria-hidden="true" style="position: absolute; width: 0; height: 0; overflow: hidden;" version="1.1" xmlns="http://www.w3.org/2000/svg" xmlns:xlink="http://www.w3.org/1999/xlink">
<defs>
<symbol id="icon-campfire" viewBox="0 0 24 32">
<path d="M22.407 16.593c-0.29-0.635-0.69-1.261-1.275-1.983-1.475-1.813-1.925-5.857-1.93-5.896-0.020-0.194-0.16-0.354-0.345-0.412-0.19-0.058-0.395-0.005-0.53 0.141-1.76 1.925-1.020 4.897-0.62 6.085 0.11 0.325 0.23 0.708 0.315 1.096 0.65 3.137-0.605 4.557-0.9 4.844-0.285 0.078-0.48 0.039-0.66-0.15-0.62-0.664-0.825-2.841-0.535-5.678 0.060-0.577 0.045-1.096-0.040-1.581-0.612-3.486-2.854-5.722-3.425-6.507-1.57-2.269-1.73-6.046-1.735-6.080-0.005-0.179-0.11-0.339-0.275-0.417-0.16-0.078-0.355-0.068-0.505 0.034-2.62 1.741-2.395 5.935-2.030 8.276 0.085 0.543 0.25 1.096 0.535 1.794 1.015 2.497-0.2 5.721-0.21 5.75s-0.020 0.053-0.025 0.082c-0.155 0.795-0.415 1.27-0.705 1.27-0.030 0-0.060-0.005-0.095-0.015-0.355-0.073-0.54-0.441-0.545-0.761-0.020-4.136-4.265-5.527-4.31-5.542-0.19-0.058-0.4-0.005-0.53 0.145-0.135 0.15-0.16 0.359-0.070 0.533 0.050 0.102 0.21 0.548 0.1 2.124-0.095 1.416-0.36 2.817-0.785 4.16-1.010 3.22-0.85 6.269-0.84 6.415 0.777 8.257 12.922 9.704 20.13 5.052 0.79-0.509 1.435-1.091 1.91-1.731 2.66-3.588 1.095-8.461-0.070-11.050zM3.932 24.481c0.015 0.267-0.195 0.495-0.47 0.509h-0.030c-0.265 0-0.485-0.199-0.5-0.456-0.045-0.708-0.035-1.45 0.020-2.255 0.020-0.267 0.26-0.465 0.535-0.451 0.275 0.019 0.485 0.252 0.465 0.519-0.055 0.766-0.065 1.464-0.020 2.133zM4.177 20.186c-0.030 0.247-0.245 0.427-0.495 0.427-0.020 0-0.040 0-0.065-0.005-0.27-0.034-0.465-0.272-0.435-0.538l0.24-1.872c0.035-0.262 0.28-0.451 0.56-0.422 0.275 0.034 0.47 0.276 0.435 0.543l-0.24 1.867z"></path>
<path d="M19.025 6.633c-0.273-0.041-0.46-0.288-0.418-0.553 0.031-0.197 0.212-1.205 0.702-1.713 0.189-0.196 0.505-0.206 0.707-0.022s0.212 0.49 0.023 0.685c-0.207 0.215-0.384 0.829-0.443 1.197-0.042 0.262-0.294 0.445-0.571 0.405z"></path>
<path d="M0.796 9.048c-0.096-0.361-0.334-0.955-0.562-1.149-0.208-0.177-0.229-0.483-0.046-0.684s0.497-0.222 0.706-0.045c0.539 0.458 0.82 1.445 0.871 1.638 0.068 0.259-0.093 0.523-0.36 0.59-0.273 0.067-0.541-0.094-0.609-0.349z"></path>
</symbol>
</defs>
</svg>
